<mxfile host="65bd71144e">
    <diagram id="WaOtITjaCIEzDwfyzzxF" name="Page-1">
        <mxGraphModel dx="823" dy="1799" grid="1" gridSize="10" guides="1" tooltips="1" connect="1" arrows="1" fold="1" page="1" pageScale="1" pageWidth="827" pageHeight="1169" math="0" shadow="0">
            <root>
                <mxCell id="0"/>
                <mxCell id="1" parent="0"/>
                <mxCell id="3" value="Class Inheritance Diagram&lt;br&gt;Model Viewer Controller" style="whiteSpace=wrap;html=1;" vertex="1" parent="1">
                    <mxGeometry x="240" y="-70" width="420" height="60" as="geometry"/>
                </mxCell>
                <mxCell id="4" value="Page Controller" style="whiteSpace=wrap;html=1;" vertex="1" parent="1">
                    <mxGeometry x="500" y="70" width="300" height="60" as="geometry"/>
                </mxCell>
                <mxCell id="12" value="PageModel" style="whiteSpace=wrap;html=1;" vertex="1" parent="1">
                    <mxGeometry x="140" y="70" width="270" height="60" as="geometry"/>
                </mxCell>
                <mxCell id="13" value="UserModel" style="whiteSpace=wrap;html=1;" vertex="1" parent="1">
                    <mxGeometry x="279" y="190" width="270" height="60" as="geometry"/>
                </mxCell>
                <mxCell id="14" value="" style="endArrow=classic;html=1;entryX=0.5;entryY=1;entryDx=0;entryDy=0;exitX=0.5;exitY=0;exitDx=0;exitDy=0;" edge="1" parent="1" source="13" target="12">
                    <mxGeometry width="50" height="50" relative="1" as="geometry">
                        <mxPoint x="400" y="170" as="sourcePoint"/>
                        <mxPoint x="450" y="120" as="targetPoint"/>
                    </mxGeometry>
                </mxCell>
                <mxCell id="15" value="ShopModel" style="rounded=0;whiteSpace=wrap;html=1;" vertex="1" parent="1">
                    <mxGeometry x="30" y="190" width="230" height="60" as="geometry"/>
                </mxCell>
                <mxCell id="16" value="" style="endArrow=classic;html=1;entryX=0.25;entryY=1;entryDx=0;entryDy=0;exitX=0.5;exitY=0;exitDx=0;exitDy=0;" edge="1" parent="1" source="15" target="12">
                    <mxGeometry width="50" height="50" relative="1" as="geometry">
                        <mxPoint x="400" y="200" as="sourcePoint"/>
                        <mxPoint x="450" y="150" as="targetPoint"/>
                    </mxGeometry>
                </mxCell>
            </root>
        </mxGraphModel>
    </diagram>
</mxfile>